<?xml version="1.0" encoding="iso-8859-1"?>
<!-- Uploaded to: SVG Repo, www.svgrepo.com, Generator: SVG Repo Mixer Tools -->
<svg height="800px" width="800px" version="1.1" id="Layer_1" xmlns="http://www.w3.org/2000/svg" xmlns:xlink="http://www.w3.org/1999/xlink" 
	 viewBox="0 0 512 512" xml:space="preserve">
<circle style="fill:#006775;" cx="255.998" cy="255.947" r="255.947"/>
<path style="fill:#055661;" d="M511.949,258.233C510.702,398.568,396.648,512,256,512h-0.104L135.713,391.816L399.66,146.048
	l112.185,112.185H511.949z"/>
<circle style="fill:#F7F7F8;" cx="255.998" cy="255.947" r="173.677"/>
<path style="fill:#12B589;" d="M255.793,74.79c99.201,0,179.808,79.776,181.158,178.665l20.36-15.997
	c2.805-2.181,6.856-1.766,9.141,1.039l0,0c2.181,2.805,1.766,6.856-1.143,9.141l-30.643,24.099
	c-1.247,1.039-2.805,1.454-4.259,1.351c-1.454,0.104-3.013-0.415-4.259-1.351l-30.643-24.099c-2.805-2.181-3.324-6.336-1.143-9.141
	l0,0c2.181-2.805,6.336-3.324,9.141-1.039l18.282,14.439c-2.182-89.852-75.726-161.942-166.097-161.942
	c-84.45,0-154.254,63.052-164.745,144.698c-2.805-1.662-6.025-2.597-9.349-2.493c-1.87,0-3.843,0.208-5.609,0.831
	c11.426-89.125,87.463-157.994,179.704-157.994L255.793,74.79z M46.797,264.05l30.643-24.099c1.247-1.039,2.805-1.454,4.259-1.351
	c1.454-0.104,3.013,0.415,4.259,1.351L116.6,264.05c2.805,2.181,3.324,6.336,1.143,9.141l0,0c-2.181,2.805-6.336,3.324-9.141,1.039
	l-18.906-14.854c1.87,90.163,75.517,162.668,166.096,162.668c84.554,0,154.462-63.26,164.849-145.009
	c2.909,1.87,6.336,2.909,9.868,2.805c1.662,0,3.428-0.208,5.09-0.623c-11.426,89.021-87.567,157.89-179.704,157.89
	c-99.201,0-179.704-79.672-181.158-178.457l-19.84,15.582c-2.805,2.181-6.856,1.766-9.141-1.039l0,0
	C43.577,270.386,43.992,266.336,46.797,264.05z"/>
<path style="fill:#E84F4F;" d="M234.915,202.244c-8.102,3.843-33.967,19.217-5.921,22.23c2.493,14.854,5.194,21.71,3.22,38.849
	c-0.935,7.895-4.986,26.488-9.868,32.305h-6.233c-3.947,0-7.063,3.22-7.063,7.063l0,0c0,2.493,1.351,4.778,3.324,6.025
	c-6.129,14.127-33.967,14.023-10.283,38.538c-8.725,7.271-10.076,3.116-8.829,18.906c20.36,14.127,104.914,14.127,125.273,0
	c1.247-15.789,0-11.634-8.829-18.906c23.684-24.411-4.155-24.307-10.283-38.538c1.973-1.247,3.324-3.532,3.324-6.025l0,0
	c0-3.947-3.22-7.063-7.063-7.063h-6.233c-4.882-5.817-8.934-24.514-9.868-32.305c-1.973-17.14,0.727-23.892,3.22-38.849
	c28.046-3.013,2.181-18.386-5.921-22.23c5.505-6.336,9.764-8.414,13.815-16.931c4.052-8.518,4.467-17.035,1.87-26.592
	c-4.259-15.893-20.671-23.788-36.876-23.371c-16.205-0.415-32.617,7.479-36.876,23.371c-2.597,9.453-2.181,18.074,1.87,26.592
	c4.051,8.621,8.31,10.596,13.816,16.931L234.915,202.244L234.915,202.244z"/>
<path style="fill:#C94545;" d="M256,376.755c15.893,0.104,49.548-1.454,62.637-10.595c1.247-15.789,0-11.634-8.829-18.906
	c23.684-24.411-4.155-24.307-10.283-38.538c1.973-1.247,3.324-3.532,3.324-6.025c0-3.947-3.22-7.167-7.063-7.167h-6.233
	c-4.882-5.817-8.934-24.514-9.868-32.305c-1.973-17.14,0.727-23.892,3.22-38.849c28.046-3.013,2.181-18.386-5.921-22.23
	c5.505-6.336,9.764-8.414,13.815-16.931c4.052-8.517,4.467-17.035,1.87-26.592c-4.259-15.893-20.671-23.788-36.876-23.371
	c0,89.229,0,171.498,0,241.406L256,376.755z"/>
</svg>